<svg width="40" height="34" viewBox="0 0 40 34" fill="none" xmlns="http://www.w3.org/2000/svg">
<path d="M12.063 0.909744C12.8193 1.58767 12.8804 2.73787 12.2005 3.49197L6.7005 9.58572C6.36439 9.95896 5.89078 10.1799 5.38661 10.1875C4.88244 10.1951 4.40119 10.0047 4.04217 9.65427L0.978971 6.6074C0.260916 5.89138 0.260916 4.73357 0.978971 4.02517C1.69703 3.31677 2.85814 3.30916 3.56855 4.02517L5.25675 5.70857L9.46578 1.04685C10.1456 0.292751 11.2991 0.231814 12.0554 0.909744H12.063ZM12.063 13.0972C12.8193 13.7752 12.8804 14.9254 12.2005 15.6795L6.7005 21.7732C6.36439 22.1465 5.89078 22.3674 5.38661 22.375C4.88244 22.3826 4.40119 22.1922 4.04217 21.8418L0.978971 18.7949C0.260916 18.0789 0.260916 16.9211 0.978971 16.2127C1.69703 15.5043 2.85814 15.4967 3.56855 16.2127L5.25675 17.8961L9.46578 13.2344C10.1456 12.4803 11.2991 12.4193 12.0554 13.0972H12.063ZM17.5554 5.31248C17.5554 3.96424 18.6477 2.87498 19.9998 2.87498H37.1109C38.463 2.87498 39.5554 3.96424 39.5554 5.31248C39.5554 6.66072 38.463 7.74998 37.1109 7.74998H19.9998C18.6477 7.74998 17.5554 6.66072 17.5554 5.31248ZM17.5554 17.5C17.5554 16.1517 18.6477 15.0625 19.9998 15.0625H37.1109C38.463 15.0625 39.5554 16.1517 39.5554 17.5C39.5554 18.8482 38.463 19.9375 37.1109 19.9375H19.9998C18.6477 19.9375 17.5554 18.8482 17.5554 17.5ZM12.6665 29.6875C12.6665 28.3392 13.7588 27.25 15.1109 27.25H37.1109C38.463 27.25 39.5554 28.3392 39.5554 29.6875C39.5554 31.0357 38.463 32.125 37.1109 32.125H15.1109C13.7588 32.125 12.6665 31.0357 12.6665 29.6875ZM4.11092 33.3437C2.08661 33.3437 0.444249 31.706 0.444249 29.6875C0.444249 27.6689 2.08661 26.0312 4.11092 26.0312C6.13522 26.0312 7.77758 27.6689 7.77758 29.6875C7.77758 31.706 6.13522 33.3437 4.11092 33.3437Z" fill="black"/>
</svg>
